<svg viewBox="0 0 539 513" fill="none" xmlns="http://www.w3.org/2000/svg" class="hero-logo__svg">
    <path d="M538.538 213.773L491.983 203.646L523.417 167.059C496.044 139.911 437.26 132.788 376.859 152.414C368.256 155.196 359.821 158.474 351.596 162.231C352.617 153.341 353.122 144.399 353.11 135.45C353.11 71.9684 328.17 18.2923 293.879 0.666626L268.777 41.8643L244.755 0.736276C210.521 18.4445 185.65 72.0746 185.65 135.461C185.65 144.407 186.143 153.353 187.153 162.242C178.932 158.487 170.501 155.209 161.903 152.424C101.501 132.812 42.7409 139.922 15.3447 167.082L46.744 203.667L0.223633 213.785C6.47634 251.792 49.8178 292.014 110.163 311.617C118.62 314.365 127.227 316.631 135.941 318.405C129.95 324.967 124.33 331.86 119.11 339.05C81.7675 390.397 70.3874 448.466 87.7675 482.877L132.303 464.307L127.553 511.699C165.641 517.479 217.323 488.692 254.639 437.425C260.007 430.049 264.941 422.367 269.415 414.418C273.892 422.37 278.834 430.052 284.214 437.425C321.498 488.725 373.158 517.433 411.287 511.699L406.526 464.308L451.015 482.888C468.386 448.48 457.027 390.401 419.663 339.037C414.442 331.848 408.819 324.96 402.82 318.405C411.542 316.627 420.157 314.356 428.622 311.604C488.931 292.015 532.273 251.792 538.526 213.783L538.538 213.773Z" fill="#E4232D"></path>
    <path d="M190.027 166.338L141.3 318.551L269.381 409.508L398.855 318.551L349.664 166.338L190.027 166.338Z" stroke="white"></path>
    <path d="M190.026 166.338L52.6631 205.783L141.299 318.551" stroke="white"></path>
    <path d="M52.6631 205.784L165.431 243.837" stroke="white"></path>
    <path d="M189.563 166.338L269.381 48.0012L350.129 166.338" stroke="white"></path>
    <path d="M268.917 48.0009V165.873" stroke="white"></path>
    <path d="M349.201 166.338L487.028 205.783L398.856 318.551" stroke="white"></path>
    <path d="M487.028 205.783L375.188 243.373" stroke="white"></path>
    <path d="M398.391 318.552L403.495 458.235L269.381 409.508" stroke="white"></path>
    <path d="M332.959 364.955L403.497 457.768M140.837 318.085L136.196 457.768L269.383 409.969" stroke="white"></path>
    <path d="M136.659 456.841L204.877 364.029" stroke="white"></path>
    <path d="M268.914 193.257L191.88 237.343L191.88 324.587L268.914 369.601L345.949 324.587V237.343L268.914 193.257Z" stroke="white" stroke-width="4"></path>
    <path d="M224.364 306.488L191.88 237.342L268.914 229.453L345.949 237.342L313.929 306.488L268.914 369.136L224.364 306.488Z" stroke="white"></path>
    <path d="M224.828 254.977L268.914 193.257L313.465 254.977L345.949 325.051L268.914 332.476L191.88 325.051L224.828 254.977Z" stroke="white" stroke-width="4"></path>
    <path d="M313.466 254.512H224.83L268.916 332.475L313.466 254.512Z" stroke="white" stroke-width="4"></path>
    <path d="M269.377 228.989L224.363 306.487H313.928L269.377 228.989Z" stroke="white"></path>
    <path d="M192.346 237.344L224.83 254.514" stroke="white" stroke-width="4"></path>
    <path d="M345.949 237.344L313.465 254.515" stroke="white" stroke-width="4"></path>
    <path d="M268.915 369.138V332.477" stroke="white" stroke-width="4"></path>
    <path d="M203.948 364.956L268.917 369.597L334.35 364.956" stroke="white"></path>
    <path d="M140.835 317.622L191.882 325.047" stroke="white"></path>
    <path d="M346.415 324.583L399.318 318.55" stroke="white"></path>
    <path d="M164.967 243.371L191.883 237.802" stroke="white"></path>
    <path d="M346.415 237.338L374.723 243.371" stroke="white"></path>
    <path d="M190.955 166.338L268.918 193.253L348.737 166.338" stroke="white"></path>
    <circle cx="192.349" cy="237.338" r="7.42502" fill="white"></circle>
    <circle cx="346.417" cy="237.339" r="7.42502" fill="white"></circle>
    <circle cx="313.933" cy="306.95" r="7.42502" fill="white"></circle>
    <circle cx="224.831" cy="306.951" r="7.42502" fill="white"></circle>
    <circle cx="269.383" cy="230.842" r="7.42502" fill="white"></circle>
    <circle cx="268.454" cy="370.062" r="7.42502" fill="white"></circle>
    <circle cx="398.389" cy="317.16" r="7.42502" fill="white"></circle>
    <circle cx="143.155" cy="317.161" r="7.42502" fill="white"></circle>
    <circle cx="268.451" cy="409.971" r="7.42502" fill="white"></circle>
    <circle cx="348.273" cy="166.802" r="7.42502" fill="white"></circle>
    <circle cx="191.417" cy="166.802" r="7.42502" fill="white"></circle>
    <circle cx="345.484" cy="324.584" r="4.64064" fill="white"></circle>
    <circle cx="192.344" cy="324.584" r="4.64064" fill="white"></circle>
    <circle cx="268.45" cy="193.717" r="4.64064" fill="white"></circle>
</svg>